<mxfile host="app.diagrams.net" modified="2024-06-15T14:36:41.204Z" agent="Mozilla/5.0 (Windows NT 10.0; Win64; x64) AppleWebKit/537.36 (KHTML, like Gecko) Chrome/125.0.0.0 Safari/537.36" etag="r2QwT2E-BQm47mtDrujA" version="24.5.4" type="github">
  <diagram id="C5RBs43oDa-KdzZeNtuy" name="Page-1">
    <mxGraphModel dx="1050" dy="522" grid="1" gridSize="10" guides="1" tooltips="1" connect="1" arrows="1" fold="1" page="1" pageScale="1" pageWidth="827" pageHeight="1169" math="0" shadow="0">
      <root>
        <mxCell id="WIyWlLk6GJQsqaUBKTNV-0" />
        <mxCell id="WIyWlLk6GJQsqaUBKTNV-1" parent="WIyWlLk6GJQsqaUBKTNV-0" />
        <mxCell id="YiZpZG4YG-7SigS1AQYH-5" style="edgeStyle=orthogonalEdgeStyle;rounded=0;orthogonalLoop=1;jettySize=auto;html=1;exitX=0.5;exitY=1;exitDx=0;exitDy=0;entryX=0.5;entryY=0;entryDx=0;entryDy=0;" edge="1" parent="WIyWlLk6GJQsqaUBKTNV-1" source="YiZpZG4YG-7SigS1AQYH-0" target="YiZpZG4YG-7SigS1AQYH-2">
          <mxGeometry relative="1" as="geometry" />
        </mxCell>
        <mxCell id="YiZpZG4YG-7SigS1AQYH-0" value="打开气体传感器" style="rounded=0;whiteSpace=wrap;html=1;" vertex="1" parent="WIyWlLk6GJQsqaUBKTNV-1">
          <mxGeometry x="160" y="170" width="190" height="60" as="geometry" />
        </mxCell>
        <mxCell id="YiZpZG4YG-7SigS1AQYH-4" style="edgeStyle=orthogonalEdgeStyle;rounded=0;orthogonalLoop=1;jettySize=auto;html=1;entryX=0.5;entryY=0;entryDx=0;entryDy=0;" edge="1" parent="WIyWlLk6GJQsqaUBKTNV-1" source="YiZpZG4YG-7SigS1AQYH-1" target="YiZpZG4YG-7SigS1AQYH-0">
          <mxGeometry relative="1" as="geometry" />
        </mxCell>
        <mxCell id="YiZpZG4YG-7SigS1AQYH-1" value="开始" style="ellipse;whiteSpace=wrap;html=1;" vertex="1" parent="WIyWlLk6GJQsqaUBKTNV-1">
          <mxGeometry x="195" y="40" width="120" height="60" as="geometry" />
        </mxCell>
        <mxCell id="YiZpZG4YG-7SigS1AQYH-6" style="edgeStyle=orthogonalEdgeStyle;rounded=0;orthogonalLoop=1;jettySize=auto;html=1;exitX=0.5;exitY=1;exitDx=0;exitDy=0;" edge="1" parent="WIyWlLk6GJQsqaUBKTNV-1" source="YiZpZG4YG-7SigS1AQYH-2" target="YiZpZG4YG-7SigS1AQYH-3">
          <mxGeometry relative="1" as="geometry" />
        </mxCell>
        <mxCell id="YiZpZG4YG-7SigS1AQYH-2" value="上几位发送命令" style="rounded=0;whiteSpace=wrap;html=1;" vertex="1" parent="WIyWlLk6GJQsqaUBKTNV-1">
          <mxGeometry x="160" y="260" width="190" height="60" as="geometry" />
        </mxCell>
        <mxCell id="YiZpZG4YG-7SigS1AQYH-8" style="edgeStyle=orthogonalEdgeStyle;rounded=0;orthogonalLoop=1;jettySize=auto;html=1;exitX=0.5;exitY=1;exitDx=0;exitDy=0;" edge="1" parent="WIyWlLk6GJQsqaUBKTNV-1" source="YiZpZG4YG-7SigS1AQYH-3" target="YiZpZG4YG-7SigS1AQYH-7">
          <mxGeometry relative="1" as="geometry" />
        </mxCell>
        <mxCell id="YiZpZG4YG-7SigS1AQYH-3" value="自动识别气体量程、名称" style="rounded=0;whiteSpace=wrap;html=1;" vertex="1" parent="WIyWlLk6GJQsqaUBKTNV-1">
          <mxGeometry x="160" y="350" width="190" height="60" as="geometry" />
        </mxCell>
        <mxCell id="YiZpZG4YG-7SigS1AQYH-10" style="edgeStyle=orthogonalEdgeStyle;rounded=0;orthogonalLoop=1;jettySize=auto;html=1;exitX=0.5;exitY=1;exitDx=0;exitDy=0;entryX=0.5;entryY=0;entryDx=0;entryDy=0;" edge="1" parent="WIyWlLk6GJQsqaUBKTNV-1" source="YiZpZG4YG-7SigS1AQYH-7" target="YiZpZG4YG-7SigS1AQYH-9">
          <mxGeometry relative="1" as="geometry" />
        </mxCell>
        <mxCell id="YiZpZG4YG-7SigS1AQYH-7" value="气体传感器反馈实时浓度值" style="rounded=0;whiteSpace=wrap;html=1;" vertex="1" parent="WIyWlLk6GJQsqaUBKTNV-1">
          <mxGeometry x="160" y="430" width="190" height="60" as="geometry" />
        </mxCell>
        <mxCell id="YiZpZG4YG-7SigS1AQYH-13" style="edgeStyle=orthogonalEdgeStyle;rounded=0;orthogonalLoop=1;jettySize=auto;html=1;exitX=1;exitY=0.5;exitDx=0;exitDy=0;entryX=0;entryY=0.5;entryDx=0;entryDy=0;" edge="1" parent="WIyWlLk6GJQsqaUBKTNV-1" source="YiZpZG4YG-7SigS1AQYH-9" target="YiZpZG4YG-7SigS1AQYH-12">
          <mxGeometry relative="1" as="geometry" />
        </mxCell>
        <mxCell id="YiZpZG4YG-7SigS1AQYH-14" value="" style="edgeStyle=orthogonalEdgeStyle;rounded=0;orthogonalLoop=1;jettySize=auto;html=1;" edge="1" parent="WIyWlLk6GJQsqaUBKTNV-1" source="YiZpZG4YG-7SigS1AQYH-9" target="YiZpZG4YG-7SigS1AQYH-11">
          <mxGeometry relative="1" as="geometry" />
        </mxCell>
        <mxCell id="YiZpZG4YG-7SigS1AQYH-9" value="处理分析" style="rounded=0;whiteSpace=wrap;html=1;" vertex="1" parent="WIyWlLk6GJQsqaUBKTNV-1">
          <mxGeometry x="200" y="510" width="110" height="40" as="geometry" />
        </mxCell>
        <mxCell id="YiZpZG4YG-7SigS1AQYH-21" style="edgeStyle=orthogonalEdgeStyle;rounded=0;orthogonalLoop=1;jettySize=auto;html=1;entryX=0.5;entryY=0;entryDx=0;entryDy=0;" edge="1" parent="WIyWlLk6GJQsqaUBKTNV-1" source="YiZpZG4YG-7SigS1AQYH-11" target="YiZpZG4YG-7SigS1AQYH-18">
          <mxGeometry relative="1" as="geometry" />
        </mxCell>
        <mxCell id="YiZpZG4YG-7SigS1AQYH-11" value="存储气体浓度、经纬度、时间、高程等" style="ellipse;whiteSpace=wrap;html=1;" vertex="1" parent="WIyWlLk6GJQsqaUBKTNV-1">
          <mxGeometry x="156.25" y="585" width="197.5" height="65" as="geometry" />
        </mxCell>
        <mxCell id="YiZpZG4YG-7SigS1AQYH-16" style="edgeStyle=orthogonalEdgeStyle;rounded=0;orthogonalLoop=1;jettySize=auto;html=1;entryX=1;entryY=0.5;entryDx=0;entryDy=0;exitX=0.5;exitY=1;exitDx=0;exitDy=0;" edge="1" parent="WIyWlLk6GJQsqaUBKTNV-1" source="YiZpZG4YG-7SigS1AQYH-12" target="YiZpZG4YG-7SigS1AQYH-11">
          <mxGeometry relative="1" as="geometry" />
        </mxCell>
        <mxCell id="YiZpZG4YG-7SigS1AQYH-12" value="浓度超标预警" style="rounded=0;whiteSpace=wrap;html=1;" vertex="1" parent="WIyWlLk6GJQsqaUBKTNV-1">
          <mxGeometry x="380" y="510" width="110" height="40" as="geometry" />
        </mxCell>
        <mxCell id="YiZpZG4YG-7SigS1AQYH-22" style="edgeStyle=orthogonalEdgeStyle;rounded=0;orthogonalLoop=1;jettySize=auto;html=1;entryX=0.5;entryY=0;entryDx=0;entryDy=0;" edge="1" parent="WIyWlLk6GJQsqaUBKTNV-1" source="YiZpZG4YG-7SigS1AQYH-18" target="YiZpZG4YG-7SigS1AQYH-20">
          <mxGeometry relative="1" as="geometry" />
        </mxCell>
        <mxCell id="YiZpZG4YG-7SigS1AQYH-18" value="关闭气体传感器" style="rounded=0;whiteSpace=wrap;html=1;" vertex="1" parent="WIyWlLk6GJQsqaUBKTNV-1">
          <mxGeometry x="160" y="690" width="190" height="60" as="geometry" />
        </mxCell>
        <mxCell id="YiZpZG4YG-7SigS1AQYH-20" value="结束" style="ellipse;whiteSpace=wrap;html=1;" vertex="1" parent="WIyWlLk6GJQsqaUBKTNV-1">
          <mxGeometry x="195" y="780" width="120" height="60" as="geometry" />
        </mxCell>
      </root>
    </mxGraphModel>
  </diagram>
</mxfile>
